<svg width="424" height="286" viewBox="0 0 424 286" fill="none" xmlns="http://www.w3.org/2000/svg">
<path d="M0 0.5L424 138V183.5L0 109V0.5Z" fill="#0063B2"/>
<mask id="mask0_803_241" style="mask-type:alpha" maskUnits="userSpaceOnUse" x="0" y="1" width="424" height="285">
<rect y="1" width="424" height="285" fill="#D9D9D9"/>
</mask>
<g mask="url(#mask0_803_241)">
<path d="M-248.863 591.126L-407.133 317.391L-248.863 43.6548H67.6765L225.946 317.391L67.6765 591.126H-248.863Z" stroke="#383838" stroke-width="3.60549"/>
<path d="M66.8474 589.709L125.038 260.18" stroke="#383838" stroke-width="2.31781"/>
<path d="M66.8716 589.937L151.328 275.196" stroke="#383838" stroke-width="2.31781"/>
<path d="M67.769 590.376L98.0982 244.239" stroke="#383838" stroke-width="2.31781"/>
<path d="M66.5547 591.604V226.797" stroke="#383838" stroke-width="2.31781"/>
<path d="M224.961 317.946L-31.7383 102.862" stroke="#383838" stroke-width="2.31781"/>
<path d="M225.171 318.044L-5.57007 87.637" stroke="#383838" stroke-width="2.31781"/>
<path d="M225.312 318.095L19.6414 73.3337" stroke="#383838" stroke-width="2.31781"/>
<path d="M225.205 317.99L43.9175 59.4524" stroke="#383838" stroke-width="2.31781"/>
<path d="M226 317.486L-59.0334 118.191" stroke="#383838" stroke-width="2.31781"/>
<path d="M225.244 318.311L-91.1421 135.907" stroke="#383838" stroke-width="2.31781"/>
<path d="M67.4276 44.1582L-248.768 159.079" stroke="#383838" stroke-width="2.31781"/>
<path d="M67.5935 43.9529L-248.345 128.495" stroke="#383838" stroke-width="2.31781"/>
<path d="M67.6911 43.7432L-248.419 99.4017" stroke="#383838" stroke-width="2.31781"/>
<path d="M67.5253 43.4265L-248.494 71.0347" stroke="#383838" stroke-width="2.31781"/>
<path d="M67.5447 43L-248.674 190.242" stroke="#383838" stroke-width="2.31781"/>
<path d="M67.8619 44.0203L-248.525 226.424" stroke="#383838" stroke-width="2.31781"/>
<mask id="mask1_803_241" style="mask-type:alpha" maskUnits="userSpaceOnUse" x="-249" y="155" width="315" height="329">
<path d="M-173.563 221.759L-173.881 181.494L-195.945 181.669L-195.62 222.692L-195.356 256.12C-194.885 267.512 -190.25 289.309 -186.264 299.354C-181.606 311.094 -176.939 323.973 -165.413 338.317C-153.584 353.039 -146.163 358.346 -140.498 362.053C-133.614 366.557 -130.553 368.813 -116.05 374.776C-101.547 380.74 -95.0828 381.449 -87.0854 381.386C-77.9559 381.313 -71.2842 380.28 -62.7635 378.155C-51.7532 375.409 -46.8287 372.711 -42.2788 370.775C-38.6391 369.227 -31.0456 364.103 -27.8927 361.925C-33.5356 369.947 -45.8127 382.12 -55.0807 387.591C-66.8188 394.522 -71.3686 396.457 -84.2695 400.737C-97.1699 405.017 -110.861 405.505 -113.905 405.529C-118.85 405.568 -133.123 404.753 -139.032 403.068C-145.514 401.22 -160.669 395.77 -169.956 389.256C-180.667 381.744 -190.566 371.185 -195.641 364.387C-199.87 358.723 -202.556 355.839 -210.291 339.81C-216.866 326.187 -218.211 322.339 -221.548 311.408C-224.673 301.177 -225.068 299.28 -225.509 291.686L-226.139 211.917L-226.566 157.977L-248.629 158.151L-247.41 312.372C-246.974 319.333 -244.944 335.525 -243.372 341.971C-241.521 349.554 -237.856 365.859 -234.364 374.569C-230.871 383.279 -226.788 393.163 -223.131 399.932C-219.656 406.363 -212.704 419.602 -205.791 427.907C-199.246 435.768 -189.289 446.011 -185.078 449.396C-176.398 456.546 -154.008 472.02 -133.884 476.725C-108.73 482.604 -104.162 482.95 -91.606 483.227C-79.7918 483.49 -44.2274 478.766 -27.0338 470.564C-19.8831 467.154 -10.222 462.673 -1.27733 456.303C12.7201 446.342 24.7435 434.088 32.6891 422.228C38.2155 413.982 43.5858 405.048 48.0586 393.236C53.5704 380.656 56.5408 371.035 57.7456 367.328C59.9747 360.473 63.6281 341.45 64.3109 331.567C64.9938 321.685 64.6573 327.007 65.3255 315.605L64.8036 249.51L64.0622 155.686L42.3762 155.857L43.6443 315.776C42.9615 325.531 41.0007 347.022 38.6253 354.942C35.6597 364.843 36.0645 367.499 31.2161 379.693C26.3628 391.888 18.861 405.242 12.8371 412.887C6.80835 420.533 -7.14854 435.456 -19.648 442.392C-32.147 449.333 -46.5575 455.143 -59.8476 458.285C-73.1373 461.431 -75.8034 461.071 -84.9299 461.524C-94.0565 461.977 -110.048 460.199 -120.337 458.002C-127.493 456.473 -135.583 454.325 -145.9 448.709C-151.502 445.84 -162.329 439.718 -167.69 435.203L-168.084 434.872C-173.391 430.405 -180.216 424.658 -188.011 415.229C-197.997 403.153 -200.717 395.957 -202.647 392.553C-204.189 389.83 -204.835 388.392 -204.965 388.013C-201.77 391.154 -194.385 398.186 -190.405 401.194C-185.429 404.954 -175.101 412.09 -172.43 413.208C-169.758 414.327 -160.209 419.188 -150.294 422.15C-140.38 425.111 -138.097 425.092 -130.477 426.553L-130.204 426.582C-127.757 426.855 -120.81 427.615 -115.252 427.571C-108.024 427.517 -100.039 427.074 -92.8235 425.496C-85.608 423.923 -76.4989 421.19 -70.0473 419.237C-63.5956 417.289 -52.6087 411.504 -51.0932 410.732C-49.5777 409.96 -37.0719 402.253 -30.6627 396.516C-24.2408 390.767 -11.4062 378.13 -5.77841 368.209C-3.90149 365.028 0.150848 357.905 1.34392 354.857C2.83795 351.046 7.23759 342.274 8.80331 335.804C9.90567 331.237 11.3933 327.046 12.481 319.82L12.4908 319.732C13.3298 313.643 14.637 304.175 14.554 293.212L13.798 197.869L13.6614 180.775L-8.0197 180.946L-7.88457 198.04L-7.68851 270.975C-7.62558 278.952 -8.3382 285.035 -11.6535 298.737C-14.9693 312.439 -25.6748 334.48 -41.7223 344.94C-44.3704 346.86 -51.2591 351.245 -57.6332 353.422C-62.8171 355.363 -75.5429 359.262 -84.9773 359.336C-96.7695 359.429 -106.69 355.709 -117 350.851C-127.31 345.994 -134.588 339.594 -140.723 333.564C-144.691 328.91 -152.705 319.299 -153.019 318.086C-149.069 320.461 -140.316 325.165 -137.356 326.32C-133.541 327.809 -134.304 327.435 -127.823 329.284C-121.341 331.132 -117.156 331.099 -107.263 331.401C-99.2741 331.338 -93.3434 330.835 -86.3586 328.957C-82.0585 327.53 -71.7944 323.372 -65.1404 318.153C-56.8225 311.629 -50.7869 305.124 -46.6565 298.253C-42.5261 291.383 -37.6592 281.468 -36.5481 277.66C-35.437 273.853 -32.0943 263.57 -31.3724 258.626C-30.6437 254.568 -27.7034 241.502 -27.4103 230.483L-27.5727 209.971L-49.6358 210.145L-49.5426 221.921C-49.3987 240.154 -51.1986 253.084 -58.2697 272.893C-70.9633 303.384 -92.2089 310.769 -106.673 309.743C-139.004 310.378 -155.173 286.193 -160.589 274.84C-166.005 263.486 -168.737 254.77 -171.124 241.493C-172.707 232.695 -173.497 230.116 -173.563 221.759Z" fill="black" stroke="black" stroke-width="0.515069"/>
</mask>
<g mask="url(#mask1_803_241)">
<path fill-rule="evenodd" clip-rule="evenodd" d="M-90.8373 499.553H-249.117V407.497H-249.033L-249.032 225.945L-90.8373 134.742L67.3594 225.945V407.497H67.4424V499.553H-90.8373Z" fill="#383838"/>
</g>
</g>
</svg>
