<svg width="26" height="26" viewBox="0 0 26 26" fill="none" xmlns="http://www.w3.org/2000/svg">
<path d="M5.2 26C3.77 26 2.54583 25.3635 1.5275 24.0906C0.509167 22.8177 0 21.2875 0 19.5V6.5C0 4.7125 0.509167 3.18229 1.5275 1.90937C2.54583 0.636458 3.77 0 5.2 0H20.8C22.23 0 23.4542 0.636458 24.4725 1.90937C25.4908 3.18229 26 4.7125 26 6.5V19.5C26 21.2875 25.4908 22.8177 24.4725 24.0906C23.4542 25.3635 22.23 26 20.8 26H5.2ZM5.2 6.5H20.8C21.2767 6.5 21.7317 6.56771 22.165 6.70312C22.5983 6.83854 23.01 7.05521 23.4 7.35312V6.5C23.4 5.60625 23.1454 4.84115 22.6362 4.20469C22.1271 3.56823 21.515 3.25 20.8 3.25H5.2C4.485 3.25 3.87292 3.56823 3.36375 4.20469C2.85458 4.84115 2.6 5.60625 2.6 6.5V7.35312C2.99 7.05521 3.40167 6.83854 3.835 6.70312C4.26833 6.56771 4.72333 6.5 5.2 6.5ZM2.795 11.7812L17.2575 16.1687C17.4525 16.2229 17.6475 16.2229 17.8425 16.1687C18.0375 16.1146 18.2217 16.0062 18.395 15.8437L22.9125 11.1312C22.6742 10.725 22.3708 10.3932 22.0025 10.1359C21.6342 9.87865 21.2333 9.75 20.8 9.75H5.2C4.63667 9.75 4.14375 9.93281 3.72125 10.2984C3.29875 10.6641 2.99 11.1583 2.795 11.7812Z" fill="#383838"/>
</svg>
