<svg width="34" height="34" viewBox="0 0 34 34" fill="none" xmlns="http://www.w3.org/2000/svg">
<path d="M13.4584 23.375V10.625L23.3751 17L13.4584 23.375ZM17.0001 32.5833C14.4501 32.5833 12.0595 31.999 9.82821 30.8302C7.59696 29.6615 5.73758 28.0264 4.25008 25.925V29.75H1.41675V21.25H9.91675V24.0833H6.44591C7.65008 25.8542 9.1789 27.2413 11.0324 28.2448C12.8858 29.2483 14.8751 29.75 17.0001 29.75C19.7154 29.75 22.1768 28.9708 24.3845 27.4125C26.5921 25.8542 28.1445 23.7882 29.0417 21.2146L31.8042 21.8521C30.7417 25.0632 28.8529 27.6545 26.1376 29.626C23.4223 31.5976 20.3765 32.5833 17.0001 32.5833ZM1.48758 15.5833C1.65286 14.0014 2.03064 12.4844 2.62091 11.0323C3.21119 9.58021 4.02578 8.24028 5.06466 7.0125L7.08341 9.03125C6.32786 9.9993 5.71397 11.0323 5.24175 12.1302C4.76953 13.2281 4.47439 14.3792 4.35633 15.5833H1.48758ZM9.06675 7.04792L7.048 5.02917C8.29939 3.99028 9.64522 3.16979 11.0855 2.56771C12.5258 1.96562 14.0251 1.60555 15.5834 1.4875V4.32083C14.3792 4.43889 13.2341 4.73403 12.148 5.20625C11.0619 5.67847 10.0348 6.29236 9.06675 7.04792ZM24.9688 7.04792C24.0008 6.29236 22.9678 5.67847 21.8699 5.20625C20.772 4.73403 19.6209 4.43889 18.4167 4.32083V1.4875C19.9987 1.62917 21.5157 1.99514 22.9678 2.58542C24.4199 3.17569 25.7598 3.99028 26.9876 5.02917L24.9688 7.04792ZM29.6792 15.5833C29.5612 14.3792 29.2661 13.2281 28.7938 12.1302C28.3216 11.0323 27.7077 9.9993 26.9522 9.03125L28.9709 7.0125C30.0098 8.24028 30.8244 9.58021 31.4147 11.0323C32.0049 12.4844 32.3709 14.0014 32.5126 15.5833H29.6792Z" fill="#383838"/>
</svg>
