<svg width="34" height="34" viewBox="0 0 34 34" fill="none" xmlns="http://www.w3.org/2000/svg">
<path d="M17 34C14.1152 34 11.4621 33.3432 9.04091 32.0295C6.6197 30.7159 4.63636 28.9644 3.09091 26.775V30.9091H0V21.6364H9.27273V24.7273H5.44773C6.68409 26.5818 8.31326 28.0758 10.3352 29.2091C12.3572 30.3424 14.5788 30.9091 17 30.9091C18.9318 30.9091 20.7413 30.542 22.4284 29.808C24.1155 29.0739 25.5837 28.0822 26.833 26.833C28.0822 25.5837 29.0739 24.1155 29.808 22.4284C30.542 20.7413 30.9091 18.9318 30.9091 17H34C34 19.3439 33.5557 21.5462 32.667 23.6068C31.7784 25.6674 30.5614 27.4705 29.0159 29.0159C27.4705 30.5614 25.6674 31.7784 23.6068 32.667C21.5462 33.5557 19.3439 34 17 34ZM15.6091 27.8182V25.8091C14.3985 25.5258 13.4133 25.0042 12.6534 24.2443C11.8936 23.4845 11.3333 22.4864 10.9727 21.25L13.5227 20.2455C13.8318 21.3015 14.3148 22.0936 14.9716 22.6216C15.6284 23.1496 16.3818 23.4136 17.2318 23.4136C18.0818 23.4136 18.8095 23.214 19.4148 22.8148C20.0201 22.4155 20.3227 21.7909 20.3227 20.9409C20.3227 20.1939 20.0072 19.5886 19.3761 19.125C18.7451 18.6614 17.6182 18.1333 15.9955 17.5409C14.4758 17 13.3617 16.3561 12.6534 15.6091C11.9451 14.8621 11.5909 13.8833 11.5909 12.6727C11.5909 11.6167 11.958 10.6572 12.692 9.79432C13.4261 8.93144 14.4242 8.37121 15.6864 8.11364V6.18182H18.3909V8.11364C19.3182 8.19091 20.1617 8.56439 20.9216 9.23409C21.6814 9.90379 22.203 10.6894 22.4864 11.5909L20.0136 12.5955C19.8076 12.003 19.4727 11.5072 19.0091 11.108C18.5455 10.7087 17.9015 10.5091 17.0773 10.5091C16.1758 10.5091 15.4867 10.7023 15.0102 11.0886C14.5337 11.475 14.2955 12.003 14.2955 12.6727C14.2955 13.3424 14.5917 13.8705 15.1841 14.2568C15.7765 14.6432 16.8455 15.0939 18.3909 15.6091C20.2455 16.2788 21.4818 17.0644 22.1 17.9659C22.7182 18.8674 23.0273 19.8591 23.0273 20.9409C23.0273 21.6879 22.8985 22.3447 22.6409 22.9114C22.3833 23.478 22.042 23.961 21.617 24.3602C21.192 24.7595 20.6962 25.0814 20.1295 25.3261C19.5629 25.5708 18.9576 25.7576 18.3136 25.8864V27.8182H15.6091ZM0 17C0 14.6561 0.444318 12.4538 1.33295 10.3932C2.22159 8.33258 3.43864 6.52955 4.98409 4.98409C6.52955 3.43864 8.33258 2.22159 10.3932 1.33295C12.4538 0.444318 14.6561 0 17 0C19.8848 0 22.5379 0.656818 24.9591 1.97045C27.3803 3.28409 29.3636 5.03561 30.9091 7.225V3.09091H34V12.3636H24.7273V9.27273H28.5523C27.3159 7.41818 25.6867 5.92424 23.6648 4.79091C21.6428 3.65758 19.4212 3.09091 17 3.09091C15.0682 3.09091 13.2587 3.45795 11.5716 4.19205C9.88447 4.92614 8.41629 5.9178 7.16705 7.16705C5.9178 8.41629 4.92614 9.88447 4.19205 11.5716C3.45795 13.2587 3.09091 15.0682 3.09091 17H0Z" fill="#383838"/>
</svg>
