<svg width="43" height="29" viewBox="0 0 43 29" fill="none" xmlns="http://www.w3.org/2000/svg">
<path d="M10.75 28.5469C7.64444 27.7312 5.07639 26.0396 3.04583 23.4719C1.01528 20.9042 0 17.9135 0 14.5C0 11.0865 1.01528 8.09583 3.04583 5.52812C5.07639 2.96042 7.64444 1.26875 10.75 0.453125V4.25938C8.62986 4.98438 6.90538 6.28333 5.57656 8.15625C4.24774 10.0292 3.58333 12.1437 3.58333 14.5C3.58333 16.8563 4.24774 18.9708 5.57656 20.8438C6.90538 22.7167 8.62986 24.0156 10.75 24.7406V28.5469ZM25.0833 29C21.1118 29 17.73 27.5878 14.938 24.7633C12.146 21.9388 10.75 18.5177 10.75 14.5C10.75 10.4823 12.146 7.0612 14.938 4.23672C17.73 1.41224 21.1118 0 25.0833 0C27.0542 0 28.9056 0.377604 30.6375 1.13281C32.3694 1.88802 33.8924 2.93021 35.2062 4.25938L32.6979 6.79688C31.7125 5.8 30.5703 5.02214 29.2714 4.46328C27.9724 3.90443 26.5764 3.625 25.0833 3.625C22.0972 3.625 19.559 4.68229 17.4688 6.79688C15.3785 8.91146 14.3333 11.4792 14.3333 14.5C14.3333 17.5208 15.3785 20.0885 17.4688 22.2031C19.559 24.3177 22.0972 25.375 25.0833 25.375C26.5764 25.375 27.9724 25.0956 29.2714 24.5367C30.5703 23.9779 31.7125 23.2 32.6979 22.2031L35.2062 24.7406C33.8924 26.0698 32.3694 27.112 30.6375 27.8672C28.9056 28.6224 27.0542 29 25.0833 29ZM35.8333 21.75L33.325 19.2125L36.1917 16.3125H23.2917V12.6875H36.1917L33.325 9.7875L35.8333 7.25L43 14.5L35.8333 21.75Z" fill="#383838"/>
</svg>
