<svg width="43" height="42" viewBox="0 0 43 42" fill="none" xmlns="http://www.w3.org/2000/svg">
<path d="M3.94207 39.1639L3.94179 37.0266L12.0725 29.2763L14.0593 29.9029L14.4603 31.2479L6.45657 39.1641L3.94207 39.1639Z" fill="#383838"/>
<path d="M3.94192 33.4269L3.94234 30.1585L7.06211 27.3071L9.59498 28.2849L3.94192 33.4269Z" fill="#383838"/>
<path d="M13.5003 39.1634L10.1291 39.1636L15.2063 34.1042L15.8879 36.6617L13.5003 39.1634Z" fill="#383838"/>
<path d="M14.4812 7.15553L23.3357 14.0468L34.019 10.5623L30.2154 21.2252L36.7459 30.3862L25.5425 30.0841L18.8949 39.2303L15.7721 28.381L5.13336 24.8734L14.4066 18.4706L14.4812 7.15553Z" fill="#383838"/>
<path d="M16.9406 12.2544L16.8927 19.7941L10.7117 24.0618L17.8023 26.3991L19.8823 33.6294L24.312 27.5345L31.779 27.7353L27.4261 21.6311L29.961 14.5249L22.8413 16.8469L16.9406 12.2544ZM14.4808 7.15557L23.335 14.0467L34.0188 10.5623L30.2151 21.2255L36.747 30.3854L25.542 30.084L18.8947 39.2302L15.7734 28.3805L5.13363 24.8732L14.4089 18.4691L14.4808 7.15557Z" fill="#383838"/>
</svg>
