<svg width="25" height="25" viewBox="0 0 25 25" fill="none" xmlns="http://www.w3.org/2000/svg">
<g clip-path="url(#clip0_833_827)">
<path d="M20.8125 17.5209L20.1563 22.1667C20.0104 23.198 19.125 23.9584 18.0938 23.9584H11.6771C11.125 23.9584 10.3333 23.7397 9.94792 23.3438L5.20834 18.3542L6.07292 17.4792C6.32292 17.2292 6.67709 17.1147 7.03125 17.1876L10.4167 17.9584V6.77091C10.4167 5.90633 11.1146 5.20841 11.9792 5.20841C12.8438 5.20841 13.5417 5.90633 13.5417 6.77091V13.0209H14.4896C14.8125 13.0209 15.1354 13.0938 15.4167 13.2397L19.6771 15.3647C20.4792 15.7709 20.9375 16.6355 20.8125 17.5209ZM12.5 2.60425C17.4375 2.60425 20.4896 5.22925 21.2813 7.29175H22.9167C22.1563 4.29175 18.2188 1.04175 12.5 1.04175C9.14584 1.04175 6.0625 2.21883 3.64584 4.18758V2.08341H2.08334V7.29175H7.29167V5.72925H4.26042C6.46875 3.79175 9.34375 2.60425 12.5 2.60425Z" fill="#383838"/>
</g>
<defs>
<clipPath id="clip0_833_827">
<rect width="25" height="25" fill="white"/>
</clipPath>
</defs>
</svg>
